<svg xmlns="http://www.w3.org/2000/svg" viewBox="0 0 250.1 102.1"><defs><style>.a347f314-e838-4a95-8208-f3216bb36656{fill:#b7b6b6;}.b852bcdb-b0cd-4763-9ba4-d1d3e2f79bbc{fill:#9d9d9c;}.ba606d5d-6b5c-4d6e-b04b-b0a1a33268d3{fill:#73a03f;}.ae4c64b8-2f2a-4b3d-a969-07b5f504a212{fill:#d7b502;}</style></defs><g id="e8d5448a-d14e-4699-ab5c-860e37755509" data-name="Capa 2"><g id="f8796b1e-a268-44f1-a202-bad9f2a82f5e" data-name="Capa 1"><path class="a347f314-e838-4a95-8208-f3216bb36656" d="M136.2,64.3a11.5,11.5,0,0,1-8.8-3.5,13.5,13.5,0,0,1-3.4-9.5v-.8a14.9,14.9,0,0,1,1.6-7.1,11.6,11.6,0,0,1,4.2-4.8,10.3,10.3,0,0,1,5.9-1.8,9.8,9.8,0,0,1,8,3.4c1.9,2.3,2.9,5.5,2.9,9.8v1.9h-18a9.3,9.3,0,0,0,2.3,6.3,7.1,7.1,0,0,0,5.6,2.4,8.2,8.2,0,0,0,4-.9,14.8,14.8,0,0,0,3-2.6l2.7,2.1C144,62.6,140.7,64.3,136.2,64.3Zm-.5-23.8a6.3,6.3,0,0,0-4.7,2,10.3,10.3,0,0,0-2.3,5.6H142v-.3a8.7,8.7,0,0,0-1.8-5.4A6,6,0,0,0,135.7,40.5Z"></path><path class="a347f314-e838-4a95-8208-f3216bb36656" d="M154.7,60V47.1h7.9c4.7,0,7,2.2,7,6.5a5.6,5.6,0,0,1-1.1,3.7l5.7-1.9a11.5,11.5,0,0,0,.1-1.9,9.1,9.1,0,0,0-1.6-5.4,8.5,8.5,0,0,0-4.6-3,9.7,9.7,0,0,0,3.9-3,7.7,7.7,0,0,0,1.4-4.5,8.8,8.8,0,0,0-2.9-7.1c-2-1.6-4.9-2.4-8.8-2.4H150V63.8L161,60Zm0-28h7c2.3,0,4.1.4,5.2,1.3s1.7,2.3,1.7,4.3a5.2,5.2,0,0,1-1.8,4.2,7.6,7.6,0,0,1-4.9,1.6h-7.2Z"></path><path class="a347f314-e838-4a95-8208-f3216bb36656" d="M198.3,45.4a8.4,8.4,0,0,0-2.7-6.3,10.5,10.5,0,0,0-7.2-2.3,13.2,13.2,0,0,0-5.3,1.1,9.4,9.4,0,0,0-3.8,2.9,6,6,0,0,0-1.4,3.9h4.5a3.6,3.6,0,0,1,1.7-3,6.5,6.5,0,0,1,4-1.2c1.9,0,3.3.4,4.2,1.4a4.9,4.9,0,0,1,1.5,3.8v2.1h-4.5c-3.8,0-6.7.7-8.8,2.2a7.1,7.1,0,0,0-2.8,4.1l20.6-7.2Z"></path><path class="a347f314-e838-4a95-8208-f3216bb36656" d="M210,41.8a7.7,7.7,0,0,1,3.9-1.1h1.6l5.7-2a8.3,8.3,0,0,0-5.9-2,9.6,9.6,0,0,0-7.9,3.8l-.2-3.3h-4.3v8l5.6-2Z"></path><path class="b852bcdb-b0cd-4763-9ba4-d1d3e2f79bbc" d="M162.4,63.9c3.8,0,6.7-1,8.8-2.8a8.9,8.9,0,0,0,3-5.7l-5.7,1.9a3.9,3.9,0,0,1-.8,1,7.7,7.7,0,0,1-5.2,1.7H161l-11,3.8h12.4Z"></path><path class="b852bcdb-b0cd-4763-9ba4-d1d3e2f79bbc" d="M179.8,62.1a9.5,9.5,0,0,0,6.5,2.2,10.3,10.3,0,0,0,7.5-3.2,10.2,10.2,0,0,0,.7,2.8h4.7v-.4a15.9,15.9,0,0,1-.9-5.9V46.9l-20.6,7.2a9.3,9.3,0,0,0-.4,2.4A7.3,7.3,0,0,0,179.8,62.1ZM190.2,51h3.6v5.4a6.5,6.5,0,0,1-2.8,2.9,8.4,8.4,0,0,1-4.1,1.1,5.4,5.4,0,0,1-3.6-1.2,3.9,3.9,0,0,1-1.4-3.3C181.9,52.6,184.6,51,190.2,51Z"></path><path class="b852bcdb-b0cd-4763-9ba4-d1d3e2f79bbc" d="M207.4,63.9v-19a9.1,9.1,0,0,1,1.1-1.6l-5.6,2V63.9Z"></path><path class="b852bcdb-b0cd-4763-9ba4-d1d3e2f79bbc" d="M217.9,42a6.7,6.7,0,0,1,1.4,4.3V63.9h4.5V46.3c0-3.4-.9-5.9-2.6-7.5l-5.7,2A3.9,3.9,0,0,1,217.9,42Z"></path><polygon class="b852bcdb-b0cd-4763-9ba4-d1d3e2f79bbc" points="232.7 63.9 232.7 54.5 235.5 51.6 244.8 63.9 250.1 63.9 238.6 48.4 248.9 37.3 243.4 37.3 235.1 46 232.7 49 232.7 34.8 228.2 36.4 228.2 63.9 232.7 63.9"></polygon><path class="ba606d5d-6b5c-4d6e-b04b-b0a1a33268d3" d="M65.7,42.2l6.6,7a2.2,2.2,0,0,1-.1,3.2L60.4,63.6a2.3,2.3,0,0,0-.1,3.2L71.4,78.5a2.2,2.2,0,0,1-.1,3.2l-6,5.9a2.3,2.3,0,0,1-3.2-.1L41.7,65.9a2.2,2.2,0,0,1,.1-3.2L62.4,42.1A2.4,2.4,0,0,1,65.7,42.2Z"></path><path class="ba606d5d-6b5c-4d6e-b04b-b0a1a33268d3" d="M34.1,58.4l-6.8-6.8a2.2,2.2,0,0,1,0-3.2L38.7,36.9a2.4,2.4,0,0,0,0-3.3L29.4,24a2.2,2.2,0,0,1,0-3.2l5.8-5.9a2.5,2.5,0,0,1,3.4.1L57.9,34.5a2.2,2.2,0,0,1,0,3.2L37.4,58.4A2.4,2.4,0,0,1,34.1,58.4Z"></path><path class="ba606d5d-6b5c-4d6e-b04b-b0a1a33268d3" d="M100.2,49.4,79.3,28.6a.2.2,0,0,1-.2-.2l2.1,7A2.8,2.8,0,0,1,78.6,39h-.7l-7.2-1.7h.1L82,49.1a2.2,2.2,0,0,1-.1,3.2L70.3,63.6a2.2,2.2,0,0,0-.1,3.2l6.3,6.4a2.4,2.4,0,0,0,3.3.1l20.4-20.6A2.4,2.4,0,0,0,100.2,49.4Z"></path><path class="ae4c64b8-2f2a-4b3d-a969-07b5f504a212" d="M76.7,32.7,71.6,16a.7.7,0,0,0-1.2-.2L69,17.2a.7.7,0,0,1-1,0L51,.2a.7.7,0,0,0-1.1.1L42.4,7.7a.8.8,0,0,0,.1,1L59.9,26a.7.7,0,0,1,0,1l-1.4,1.5a.8.8,0,0,0,.4,1.2l17,3.9A.7.7,0,0,0,76.7,32.7Z"></path><path class="ba606d5d-6b5c-4d6e-b04b-b0a1a33268d3" d="M19.5,63a3,3,0,0,1,2.7-.8l8.1,1.9L18.9,52.7a2.4,2.4,0,0,1,0-3.3L30.4,38a2.4,2.4,0,0,0,0-3.3l-5.9-5.8a2.2,2.2,0,0,0-3.2,0L.7,49.4a2.4,2.4,0,0,0,0,3.3L21.2,73.2l-2.3-7.5A2.9,2.9,0,0,1,19.5,63Z"></path><path class="ae4c64b8-2f2a-4b3d-a969-07b5f504a212" d="M22.4,67.6l5,16.6a.7.7,0,0,0,1.2.3L30,83.1a.7.7,0,0,1,1,0l18.9,18.8a.8.8,0,0,0,1.1,0l7.5-7.4a.8.8,0,0,0,0-1L39.1,74.4a.7.7,0,0,1,0-1l1.4-1.6a.7.7,0,0,0-.3-1.2l-17-3.9C22.7,66.5,22.2,67.1,22.4,67.6Z"></path></g></g></svg>